<svg xmlns="http://www.w3.org/2000/svg" width="120" height="120" viewBox="0 0 120 120">
  <circle cx="60" cy="60" r="60" fill="#23262b" />
  <g transform="translate(60, 62.400000000000006) scale(0.7)">
    
      <polygon points="-30,-12 -14,-38 -3,-10" fill="#9aa0ad"/>
      <polygon points="30,-12 14,-38 3,-10" fill="#9aa0ad"/>
      <polygon points="-24,-16 -17,-29 -9,-13" fill="#e8a6c1"/>
      <polygon points="24,-16 17,-29 9,-13" fill="#e8a6c1"/>
      <circle cx="0" cy="6" r="30" fill="#9aa0ad"/>
      <ellipse cx="-11" cy="2" rx="4" ry="6" fill="#4caf6b"/>
      <ellipse cx="11" cy="2" rx="4" ry="6" fill="#4caf6b"/>
      <polygon points="-3,14 3,14 0,18" fill="#e37fa0"/>
      <path d="M -32 16 L -8 12 M -32 24 L -8 18 M 32 16 L 8 12 M 32 24 L 8 18" stroke="#e6e8ee" stroke-width="1.5"/>
  </g>
</svg>